<?xml version="1.0" encoding="UTF-8" ?>
<!DOCTYPE svg PUBLIC "-//W3C//DTD SVG 1.1//EN" "http://www.w3.org/Graphics/SVG/1.1/DTD/svg11.dtd">
<svg width="283pt" height="261pt" viewBox="0 0 283 261" version="1.1" xmlns="http://www.w3.org/2000/svg">
<g id="#e32e2cff">
<path fill="#e32e2c" opacity="1.00" d=" M 22.17 14.18 C 33.70 5.70 47.95 1.85 62.05 0.73 C 87.13 -1.48 112.98 4.28 134.40 17.59 C 136.90 19.06 139.13 21.11 141.92 22.00 C 148.01 18.89 153.47 14.63 159.72 11.77 C 178.90 2.09 200.98 -1.69 222.25 1.55 C 239.85 3.95 257.49 11.04 269.68 24.34 C 276.59 31.57 280.59 41.00 283.00 50.58 L 283.00 73.41 C 280.84 82.03 277.80 90.49 273.06 98.04 C 260.34 118.63 240.06 133.74 217.87 142.86 C 213.38 144.74 208.79 146.59 203.87 146.86 C 203.35 142.63 207.65 140.62 210.40 138.37 C 220.21 130.98 229.59 122.90 237.58 113.54 C 247.66 101.80 256.16 87.72 257.36 71.96 C 258.70 58.84 252.58 45.79 242.97 37.06 C 231.25 26.07 214.82 21.57 199.05 21.31 C 180.31 21.25 161.98 28.05 146.74 38.73 C 145.03 39.74 143.29 41.32 141.17 41.07 C 138.40 39.51 136.09 37.27 133.43 35.53 C 118.89 25.81 101.40 20.94 83.99 20.59 C 68.39 20.49 52.18 24.80 40.27 35.25 C 31.33 43.15 26.05 55.02 26.49 66.98 C 26.64 78.91 32.11 90.25 40.12 98.91 C 48.98 108.73 60.26 116.02 72.06 121.82 C 90.80 131.14 111.08 137.20 131.73 140.42 C 137.20 141.27 143.00 141.56 148.23 139.42 C 158.57 135.56 168.34 129.98 176.65 122.70 C 186.40 114.26 193.83 102.71 195.78 89.83 C 197.10 81.47 196.23 72.14 190.62 65.42 C 185.44 58.82 175.99 56.79 168.20 59.30 C 158.44 61.94 151.78 70.10 145.65 77.60 C 144.35 79.01 142.40 81.53 140.29 80.05 C 137.13 76.39 135.02 71.88 131.45 68.54 C 124.21 60.91 113.14 55.96 102.60 58.76 C 94.43 60.76 88.40 68.63 88.23 76.98 C 88.05 85.33 92.44 93.07 98.07 98.95 C 106.03 107.13 116.08 112.94 126.43 117.57 C 130.83 119.59 135.48 121.00 139.81 123.18 C 139.84 123.89 139.91 125.32 139.94 126.04 C 137.65 126.38 135.31 126.49 133.02 126.14 C 122.69 124.70 112.62 121.75 102.87 118.12 C 89.97 113.14 77.41 106.33 67.96 96.06 C 60.48 87.86 56.12 76.27 58.36 65.18 C 60.43 54.74 68.58 46.23 78.27 42.28 C 89.62 37.91 102.48 38.03 113.92 42.02 C 124.70 45.54 133.83 52.69 141.32 61.05 C 145.17 58.75 148.30 55.48 151.98 52.93 C 161.98 45.86 173.60 40.38 186.00 39.76 C 195.98 39.19 206.31 42.42 213.66 49.31 C 220.65 55.87 224.25 65.52 224.29 75.01 C 224.76 87.82 219.68 100.16 212.69 110.66 C 207.34 118.47 201.13 125.77 193.79 131.79 C 181.81 141.74 167.70 148.82 153.09 154.03 C 147.97 155.86 142.51 157.08 137.06 156.45 C 102.65 152.97 68.49 142.06 40.13 121.92 C 27.27 112.59 15.60 101.08 8.10 86.94 C 1.82 75.46 -1.01 62.02 0.86 49.02 C 2.67 35.09 10.78 22.29 22.17 14.18 Z" />
<path fill="#e32e2c" opacity="1.00" d=" M 90.82 179.03 C 95.27 178.96 99.72 178.97 104.18 179.03 C 104.38 185.59 104.17 192.16 104.27 198.73 C 109.09 198.76 113.91 198.76 118.73 198.73 C 118.83 192.16 118.62 185.60 118.82 179.03 C 123.27 178.97 127.73 178.97 132.18 179.03 C 132.31 197.80 132.30 216.58 132.18 235.35 C 127.73 235.57 123.27 235.57 118.82 235.35 C 118.64 227.89 118.79 220.42 118.76 212.96 C 113.93 212.59 109.07 212.59 104.24 212.96 C 104.21 220.42 104.36 227.89 104.18 235.35 C 99.73 235.57 95.27 235.57 90.82 235.35 C 90.69 216.58 90.69 197.80 90.82 179.03 Z" />
<path fill="#e32e2c" opacity="1.00" d=" M 153.03 179.83 C 161.03 179.68 169.03 179.70 177.03 179.79 C 181.22 179.77 184.96 182.57 186.66 186.31 C 189.70 193.03 188.66 202.16 182.28 206.60 C 188.74 209.21 190.76 216.76 189.88 223.10 C 189.40 228.46 186.53 234.72 180.70 235.79 C 171.63 237.68 162.28 236.32 153.10 236.78 C 152.89 217.80 153.02 198.81 153.03 179.83 M 165.41 191.32 C 165.47 194.84 165.49 198.36 165.39 201.88 C 168.50 202.30 172.31 203.06 174.96 200.96 C 176.98 198.28 176.99 193.17 173.57 191.59 C 170.90 190.97 168.13 191.28 165.41 191.32 M 165.65 213.00 C 165.42 216.79 165.44 220.58 165.64 224.37 C 168.94 224.38 172.50 225.08 175.61 223.67 C 178.57 221.33 178.68 215.75 175.37 213.67 C 172.27 212.52 168.87 213.11 165.65 213.00 Z" />
</g>
</svg>
